<?xml version="1.0" encoding="UTF-8"?>
<svg xmlns="http://www.w3.org/2000/svg" xmlns:xlink="http://www.w3.org/1999/xlink" width="42px" height="42px" viewBox="0 0 42 42" version="1.1">
<g id="surface1">
<path style=" stroke:none;fill-rule:nonzero;fill:rgb(10.588235%,12.156863%,13.72549%);fill-opacity:1;" d="M 21 0 C 9.398438 0 0 9.398438 0 21 C 0 30.292969 6.011719 38.140625 14.359375 40.921875 C 15.410156 41.109375 15.800781 40.476562 15.800781 39.925781 C 15.800781 39.425781 15.777344 37.773438 15.777344 36.015625 C 10.5 36.984375 9.136719 34.730469 8.714844 33.546875 C 8.480469 32.945312 7.453125 31.078125 6.5625 30.582031 C 5.828125 30.1875 4.777344 29.214844 6.535156 29.191406 C 8.191406 29.164062 9.371094 30.710938 9.765625 31.34375 C 11.65625 34.519531 14.671875 33.625 15.882812 33.074219 C 16.066406 31.710938 16.617188 30.792969 17.21875 30.265625 C 12.546875 29.742188 7.664062 27.929688 7.664062 19.898438 C 7.664062 17.613281 8.480469 15.722656 9.816406 14.253906 C 9.609375 13.730469 8.871094 11.578125 10.027344 8.6875 C 10.027344 8.6875 11.785156 8.136719 15.800781 10.839844 C 17.484375 10.367188 19.265625 10.132812 21.050781 10.132812 C 22.835938 10.132812 24.621094 10.367188 26.300781 10.839844 C 30.320312 8.109375 32.078125 8.6875 32.078125 8.6875 C 33.234375 11.578125 32.496094 13.730469 32.289062 14.253906 C 33.625 15.722656 34.441406 17.585938 34.441406 19.898438 C 34.441406 27.957031 29.53125 29.742188 24.859375 30.265625 C 25.621094 30.921875 26.277344 32.183594 26.277344 34.152344 C 26.277344 36.960938 26.25 39.21875 26.25 39.925781 C 26.25 40.476562 26.644531 41.132812 27.695312 40.921875 C 35.988281 38.140625 42 30.265625 42 21 C 42 9.398438 32.601562 0 21 0 Z M 21 0 "/>
</g>
</svg>
